<?xml version="1.0" encoding="UTF-8"?>
<svg id="Layer_2" data-name="Layer 2" xmlns="http://www.w3.org/2000/svg" viewBox="0 0 246.28 107.53">
  <defs>
    <style>
      .cls-1 {
        fill: #535353;
      }

      .cls-1, .cls-2, .cls-3 {
        stroke-width: 0px;
      }

      .cls-2 {
        fill: #f6f6f6;
      }

      .cls-3 {
        fill: #ededed;
      }
    </style>
  </defs>
  <g id="Layer_1-2" data-name="Layer 1">
    <g>
      <path class="cls-1" d="m117.94,71.35c-8.55,0-17.09,0-25.64.01-1.79.17-4.52-1.39-4.37,2.36-1.38,8.96-2.32,18.02-6.07,26.42-.75,1.68-1.6,3.39-2.74,4.83-2.53,3.21-5.64,3.16-8.25,0-2.49-3.02-3.79-6.64-4.85-10.32-4.3-14.99-5.07-30.35-4.76-45.82.02-.76,0-1.53,0-2.29-1.26,1.8-2.12,5.8-2.49,10.99-1.17,16.26-.28,32.33,4.38,48.06.4,1.35.09,1.79-1.26,1.78-4.38-.04-8.76.11-13.13-.09-3.11-.14-4.67-2.62-6.05-5-4.07-7.04-5.63-14.87-6.9-22.77-1.17-7.23-1.72-14.53-1.98-22.71-1.64,3.73-1.55,6.92-1.75,9.98-.61,9.43.04,18.82,2.08,28.05.55,2.47-.25,2.5-2.28,2.75-6.32.79-9.75-2.34-12.05-7.76-4.04-9.53-5.42-19.56-5.82-29.76-.49-12.62.14-25.15,3.95-37.32.42-1.35.93-2.68,1.44-4,2.31-5.97,5.91-9.99,13.07-8.65.53.1,1.11-.07,1.64.02,4.26.74,7.06-.5,8.78-4.88C44.29,1.66,47.29-.1,51.55.09c7.1.3,14.23.25,21.33,0,3.75-.13,5.97,1.56,7.63,4.54,3.3,5.92,4.71,12.43,5.86,19.01.62,3.55,1.05,7.13,1.38,10.72.14,1.57.72,2,2.23,2,22-.03,43.99-.04,65.99.01,1.8,0,2.6-.56,2.66-2.39.06-1.85.32-3.7.5-5.54,1.21-7.44,2.52-14.84,5.64-21.78,1.95-4.32,4.63-7.02,10.04-6.59,6.2.49,12.5.52,18.69,0,5.71-.48,9.02,2.13,10.97,6.86,1.13,2.73,2.7,3.56,5.45,3.21,1.72-.22,3.53.19,5.24-.08,5.89-.91,8.92,2.43,11.11,7.15,2.7,5.81,4.15,11.96,4.94,18.27,2.1,16.63,2.01,33.15-2.87,49.38-.66,2.18-1.54,4.33-2.59,6.36-3.03,5.88-6.2,7.32-12.6,6.26-1.98-.33-1.14-1.43-.94-2.37,1.8-8.72,2.52-17.53,2.17-26.41-.14-3.52-.61-7.02-1.36-10.5-1,7.15-1.29,14.3-2.46,21.35-1.19,7.13-2.69,14.16-5.81,20.76-2.24,4.74-5.31,7.87-11.16,7.11-2.9-.37-5.9-.08-8.85-.05-1.26,0-2.05-.02-1.53-1.8,4.63-15.72,5.61-31.79,4.35-48.05-.24-3.16-.67-6.3-1.53-9.37.01-.77-.08-1.48-1.08-2.09.1.89.17,1.49.24,2.09.11,14-.39,27.94-3.57,41.65-1.09,4.69-2.4,9.31-4.91,13.47-3.24,5.38-7.22,5.5-10.48.15-4.29-7.06-5.49-15.1-6.84-23.06-.24-1.4-.42-2.81-.61-4.21-.65-4.95-.64-4.97-5.79-4.95-11.69.04-23.37.09-35.06.14Zm53.97-18.66c.24-2.31-.22-4.55-.5-6.83-.35-2.87-1.72-3.61-4.57-3.59-27.8.13-55.6.09-83.4.09-8.34,0-8.17.02-9.13,8.22-.35,3,.63,3.31,3.2,3.3,17.18-.09,34.37,0,51.55-.04,14-.03,28-.16,42.01-.25.62.02.88-.3.84-.9ZM64.3,7.94c-6.22,0-11.89.04-17.55-.03-1.37-.02-1.9.72-2.39,1.78-2.48,5.37-4.2,10.98-5.66,16.7-.47,1.83,0,2.58,2.01,2.54,4.91-.1,9.82-.08,14.73,0,1.45.02,2.25-.42,2.5-1.87,1.15-6.46,3.35-12.59,6.36-19.12Zm117.72.01c3.05,6.56,5.28,12.7,6.41,19.18.22,1.27.87,1.8,2.24,1.78,5.14-.06,10.28-.04,15.42.01,1.41.02,2.05-.38,1.69-1.89-1.43-6.07-3.28-12-5.93-17.67-.47-1.01-1.15-1.45-2.29-1.44-5.67.04-11.35.02-17.55.02ZM37.74,17.86c-4.31,0-8.33.05-12.35-.03-1.34-.02-1.95.63-2.42,1.73-2.35,5.56-3.66,11.39-4.39,17.36-.18,1.48.37,1.96,1.77,1.94,3.6-.05,7.2-.04,10.8-.01,1.01,0,1.7-.3,1.84-1.38.88-6.59,2.82-12.93,4.75-19.61Zm182.95,20.98c1.85,0,3.71-.05,5.56.02,1.49.06,1.84-.51,1.62-1.97-.89-5.83-2.12-11.56-4.3-17.06-.54-1.36-1.25-2.09-2.87-2.03-3.27.12-6.55.15-9.81,0-2.22-.11-2.16.73-1.65,2.46,1.19,3.96,2.3,7.95,3.21,11.98,1.48,6.56,1.41,6.58,8.24,6.6Z"/>
      <path class="cls-1" d="m246.28,53.81c-.1,4.27-.36,8.51-2.69,12.29-1.41,2.28-5.38,3.49-7.8,2.54-1.02-.4-.86-1.13-.79-1.86.83-8.7.87-17.4-.02-26.11-.08-.75-.17-1.45.87-1.81,3.13-1.08,6.68.35,8.24,3.5,1.79,3.6,2.17,7.49,2.19,11.45Z"/>
      <path class="cls-3" d="m185.19,48.15c-.07-.6-.14-1.2-.24-2.09,1,.61,1.09,1.32,1.08,2.09-.28,0-.56,0-.84,0Z"/>
      <path class="cls-1" d="m0,53.54c.2-4.06.53-7.96,2.45-11.52,1.54-2.86,5.19-4.2,8.12-3.12,1.25.46.87,1.38.8,2.16-.85,8.49-.8,16.98.03,25.47.14,1.48-.18,2.12-1.85,2.21-4.64.27-6.19-.66-7.92-5.04-1.31-3.32-1.43-6.8-1.62-10.16Z"/>
      <path class="cls-2" d="m171.07,53.59c.28-.3.56-.6.84-.9.04.6-.22.92-.84.9Z"/>
    </g>
  </g>
</svg>